<?xml version="1.0" encoding="utf-8"?>
<!-- Generator: Adobe Illustrator 20.1.0, SVG Export Plug-In . SVG Version: 6.00 Build 0)  -->
<svg version="1.1" xmlns="http://www.w3.org/2000/svg" xmlns:xlink="http://www.w3.org/1999/xlink" x="0px" y="0px"
	 viewBox="0 0 100 100" style="enable-background:new 0 0 100 100;" xml:space="preserve">
<g class="ocean">
	<path id="elev--14000" d="M107.8,101.6c0-3.5,0-7,0-10.6c0-3.5,0-7,0-10.6c0-3.5,0-7,0-10.5c0-3.5,0-7,0-10.6
		s0-7,0-10.6s0-7,0-10.6s0-7,0-10.6s0-7,0-10.6c0-3.5,0-7,0-10.5c0-1.8,0-3.5,0-5.3c0-1.1,0.3-1.7-0.6-2.1c-0.7-0.2-1.9,0-2.6,0
		c-3.5,0-7,0-10.6,0s-7,0-10.6,0c-3.5,0-7,0-10.6,0c-3.5,0-7,0-10.6,0c-3.5,0-7,0-10.5,0c-3.5,0-7,0-10.6,0c-3.5,0-7,0-10.6,0
		s-7,0-10.6,0s-7,0-10.6,0c-3.5,0-7,0-10.5,0c-1,0-4.6-0.4-5.1,0.2c-0.6,0.8,0,4.2,0,5.3c0,3.5,0,7,0,10.6s0,7,0,10.6s0,7,0,10.6
		c0,3.5,0,7,0,10.5c0,3.5,0,7,0,10.6s0,7,0,10.6c0,3.5,0,7,0,10.6c0,3.5,0,7,0,10.6c0,3.5,0,7,0,10.6c0,1.2-0.3,1.6,0.7,1.9
		c0.8,0.2,1.9,0,2.7,0c1.8,0,3.5,0,5.3,0c3.5,0,7,0,10.6,0s7,0,10.6,0s7,0,10.6,0s7,0,10.6,0s7,0,10.6,0c3.5,0,7,0,10.5,0
		c3.5,0,7,0,10.6,0s7,0,10.6,0c3.5,0,7,0,10.6,0C100.9,101.6,104.6,102.1,107.8,101.6z"/>
	<path id="elev--13000" d="M107.8,101.6c0-3.5,0-7,0-10.6c0-3.5,0-7,0-10.6c0-3.5,0-7.1,0-10.6c0-3.5,0-7,0-10.6
		s0-7,0-10.6s0-7,0-10.6c0-3.5,0-7,0-10.6c0-3.5,0-7.1,0-10.6c0-3.5,0-7,0-10.6c0-1.8,0-3.5,0-5.3c0-1.2,0.3-1.6-0.7-1.9
		c-0.8-0.2-1.9,0-2.7,0c-3.5,0-7,0-10.6,0c-3.5,0-7.1,0-10.6,0c-3.5,0-7,0-10.6,0c-3.5,0-7,0-10.6,0c-3.5,0-7,0-10.6,0
		c-3.5,0-7,0-10.6,0c-3.5,0-7.1,0-10.6,0c-3.5,0-7,0-10.6,0s-7,0-10.6,0s-7,0-10.6,0c-0.9,0-1.8,0-2.7,0c-0.4,0-1-0.1-1.3,0
		C-6-0.4-5.6-0.8-5.9,0c-0.5,1.4,0,3.8,0,5.3c0,3.5,0,7.1,0,10.6c0,3.5,0,7,0,10.6s0,7,0,10.6s0,7,0,10.6c0,3.5,0,7.1,0,10.6
		c0,3.5,0,7,0,10.6s0,7,0,10.6c0,3.5,0,7,0,10.6c0,3.5,0,7,0,10.6c0,1.2,0,1.4,1.3,1.3c0.7-0.1,1.5-0.4,2.3-0.4
		c0.7,0.1,1.4,0.4,2.3,0.4c0.9,0,1.8,0,2.7,0c3.5,0,7,0,10.6,0s7,0,10.6,0s7,0,10.6,0s7,0,10.6,0c3.5,0,7.1,0,10.6,0
		c3.5,0,7,0,10.6,0c3.5,0,7,0,10.6,0c3.5,0,7,0,10.6,0s7,0,10.6,0C100.9,101.6,104.6,102.1,107.8,101.6z"/>
	<path id="elev--12000" d="M107.8,101.6c0-3.7,0-7.4,0-11.1c0-3.7,0-7.4,0-11.1c0-3.7,0-7.4,0-11.1c0-3.7,0-7.4,0-11.1
		c0-3.7,0-7.4,0-11.1s0-7.4,0-11.1s0-7.4,0-11.1c0-3.7,0-7.4,0-11.1c0-3.7,0-7.4,0-11.1c0-1,0.3-1.9-0.5-2.3c-0.7-0.3-2,0-2.7,0
		c-1.9,0-3.7,0-5.6,0c-3.7,0-7.4,0-11.1,0c-3.7,0-7.4,0-11.1,0c-3.7,0-7.4,0-11.1,0c-3.7,0-7.4,0-11.1,0c-3.7,0-7.4,0-11.1,0
		c-3.7,0-7.4,0-11.1,0c-3.7,0-7.4,0-11.1,0s-7.4,0-11.1,0c-3.7,0-7.4,0-11.1,0c-0.9,0-1.8,0-2.7,0C-5-0.7-5.6-1-5.9,0.1
		c-0.4,1.6,0,3.9,0,5.5c0,3.7,0,7.4,0,11.1c0,3.7,0,7.4,0,11.1c0,3.7,0,7.4,0,11.1s0,7.4,0,11.1c0,3.7,0,7.4,0,11.1
		c0,3.7,0,7.4,0,11.1c0,3.7,0,7.4,0,11.1c0,3.7,0,7.4,0,11.1c0,1.5,0.1,3.3,1.1,4.5c1.1,1.3,2.6-0.4,2.7-1.7
		c0.1-0.7-0.7-1.6-0.2-2.2c0.6-0.9,1.1-0.1,1.6,0.3C1.1,96.7,0.2,97.2,0,99c-0.2,2.3,1.3,2.6,3.1,2.6c0.8,0,2,0.2,2.7,0
		c1.2-0.4,0.3-1.1,1.1-1.8c1.1-0.8,0.5,1.4,0.8,1.7c0.3,0.3,2.3,0,2.8,0c1.8,0,3.7,0,5.5,0c3.7,0,7.4,0,11.1,0c3.7,0,7.4,0,11.1,0
		c3.7,0,7.4,0,11.1,0s7.4,0,11.1,0c3.7,0,7.4,0,11.1,0c1.7,0,3.9,0.3,5.5,0c0.7-0.1,1.3-0.6,2.1-0.7c0.9-0.1,1.6-0.1,2.4-0.4
		c2.8-1.1,6.1-2.9,9.3-2c1.5,0.4,1.9,2.2,3.8,1.8c1.7-0.3,3-1.1,4.8-0.8c0.9,0.1,1.3,0.2,2.2,0.1c0.9-0.1,1.3-0.3,1.9,0.5
		c0.7,0.9,0.2,1.2,1.4,1.4C105.9,101.8,107,101.7,107.8,101.6z"/>
	<path id="elev--11000" d="M107.8,101.6c0-5.2,0-10.4,0-15.6c0-5.2,0-10.4,0-15.6s0-10.4,0-15.6c0-5.2,0-10.4,0-15.6
		c0-5.2,0-10.4,0-15.6s0-10.4,0-15.6c0-2.5,0.4-5.3,0-7.8c-0.1-1,0.1-0.8-0.9-1c-0.6-0.1-1.3,0-2,0c-1.3,0-2.6,0-3.9,0
		c-5.2,0-10.4,0-15.6,0c-5.2,0-10.4,0-15.6,0c-5.2,0-10.4,0-15.6,0c-5.2,0-10.4,0-15.6,0s-10.4,0-15.6,0c-5.2,0-10.4,0-15.6,0
		c-2.6,0-5.2,0-7.8,0c-1.3,0-2.6,0-3.9,0c-0.5,0-1.5-0.2-1.7,0.2c-0.2,0.3,0,1.6,0,2c0,5.2,0,10.4,0,15.6c0,5.1-0.4,10.5,0,15.6
		c0.1,1.1,0.6,2,1,2.9c0.6,1.3,0.5,1.7,0.4,3.2c-0.2,2.3,0.9,4.8,0.8,7.2c0,1.2-0.6,2.3-0.6,3.4c0,1.1,0.8,1.9,1,3
		c0.2,1.2-0.2,2.3-0.4,3.4c-0.2,1.3,0,2.4,0.1,3.6c0.1,2.3-2.1,3.6-2.4,5.4c-0.4,2.4,0,5.4,0,7.9c0,5.2,0,10.3,0,15.5
		c0,1.7-0.8,5.7,1.8,5.8c1.2,0,1.5-0.9,2.4-1.3c1.2-0.6,1.2,0.1,1.7,1.1c0.4,0.8,1.1,1.4,1.5,2.1c0.6,1.2-0.1,1.7-0.4,2.7
		c-0.5,1.7,2,4.2,3.4,2.6c1.3-1.4,0.1-4.2,1.7-5.6c1.5-1.2,3.5,1.1,4.3,2.3c0.5,0.7,1,1.5,1.6,2.3c0.8,1.1,1.1,1.4,2.5,1.4
		c4.8,0,9.7,0,14.5,0c4.9,0,9.7,0,14.6,0s9.7,0,14.6,0s9.7,0,14.6,0c0.5,0,1.4,0.2,1.8,0c0.6-0.2,0.4-0.4,0.8-1
		c0.7-0.8,1.3-1.1,2.2-1.5c1.7-0.9,3-2.5,5-2.1c2.2,0.4,3.9,0,6.1-0.2c2.1-0.2,4.5-1,6.4,0c1,0.5,1.4,1.1,2.7,1
		c1.1,0,2.1-0.5,3.2-0.4c2.5,0.1,2.9,1.3,4.3,2.9C106.1,101,107,101.3,107.8,101.6z"/>
	<path id="elev--10000" d="M73.5,101.6c1-2.2,2.3-2.9,3.9-4.5c0.7-0.7,1.1-1.8,2-2.2c1-0.5,2.7-0.1,3.7,0.1
		c1.3,0.2,2.4,1.1,3.8,1c3.3,0,6.2-0.9,9.5-0.4c2.9,0.4,5.9-0.4,8.3,1.8c1.1,1.1,1.2,2.3,2.8,2.9c0.5-3.4,0-7.2,0-10.6
		c0-3.5,0-7.1,0-10.6s0-7.1,0-10.6s0-7.1,0-10.6s0-7.1,0-10.6c0-3.5,0-7,0-10.6c0-3.5,0-7.1,0-10.6s0-7.1,0-10.6s0-7.1,0-10.6
		c0-1.2,0.6-4.2,0-5.3c-0.4-0.8-3.7-0.4-4.9-0.4c-3.5,0-7.1,0-10.6,0s-7.1,0-10.6,0s-7.1,0-10.6,0s-7.1,0-10.6,0c-3.5,0-7,0-10.6,0
		c-3.5,0-7.1,0-10.6,0c-3.5,0-7.1,0-10.6,0s-7.1,0-10.6,0s-7.1,0-10.6,0s-7.1,0-10.6,0c-0.5,0-2.3-0.3-2.7,0
		c-0.4,0.3-0.1,1.9-0.1,2.5c0,1.8,0,3.5,0,5.3c0,3.5,0,7.1,0,10.6c0,1.6-0.4,3.8,0,5.3c0.4,1.6,1.6,1.9,2.7,2.8c2.5,2,0.3,6.2,2,8.7
		c0.8,1.2,1,2.5,1.6,3.8c0.7,1.4,2.1,1.6,2.8,2.8c1.6,2.8-1.7,6-2,8.5c-0.2,2.1-0.9,1.8-2.3,3.1c-1,0.9-1.4,2.5-1.5,3.8
		C-2.7,58-1.9,59.5-2,61c-0.1,1.4-1.1,2.3-2.1,3.1c-0.4,0.3-1.4,0.7-1.6,1c-0.4,0.5-0.2,1.8-0.2,2.5c0,1.8,0,3.5,0,5.3
		c0,3.5,0,7.1,0,10.6c0,1.7,0.1,3.4,0,5.1c-0.1,1.2,0.1,3.3,1.3,4c1.7,1,2-1.5,3.2-1.8c1.7-0.5,1.8,1.9,2.3,2.9
		c0.7,1.2,1.9,1.9,1.9,3.4c0,0.6-0.7,1.4-0.6,1.9c0.1,0.9,0.8,1,1.4,0.4c0.9-0.8,0.8-2.8,1.4-3.9c0.7-1.4,1.6-2.3,3.1-2.4
		c4-0.3,2.9,3.5,5,5.6c0.8,0.8,1.9,1.9,2.9,2.4c1.4,0.7,3.4,0.3,5,0.3c3.5,0,7.1,0,10.6,0s7.1,0,10.6,0c3.5,0,7.1,0,10.6,0
		s7.1,0,10.6,0C66.6,101.6,70.3,102.1,73.5,101.6z"/>
	<path id="elev--9000" d="M72.2,101.6c1.2-2.4,2.8-4.6,4.3-6.8c0.8-1.2,1.7-2.4,3.3-2.3c1.3,0.1,3.1,0.8,4.4,1.2
		c1.5,0.5,2.5,2,4.2,1.2c0.9-0.4,0.8-0.9,1.2-1.6c0.7-1.1,0.5-0.6,1.4,0c1.5,1,2.9,0.4,4.5,0.1c1.7-0.3,3.7-0.4,5.3,0.2
		c1.2,0.5,2.4,1.3,3.5,2c1.5,0.9,1.6,1.8,2.6,2.9c0.2,0.3,0.4,0.5,0.7,0.7c0.6-4.5,0-9.6,0-14.2c0-4.7,0-9.5,0-14.2s0-9.5,0-14.2
		c0-4.7,0-9.5,0-14.2c0-4.7,0-9.5,0-14.2s0-9.5,0-14.2c0-2.4,0-4.7,0-7.1c0-1.2,0-2.4,0-3.5c0-0.9,0.4-2.8,0-3.6
		c-0.5-1-5.2-0.4-6.6-0.4c-2.4,0-4.7,0-7.1,0c-4.7,0-9.5,0-14.2,0c-4.7,0-9.5,0-14.2,0c-4.7,0-9.4,0-14.1,0c-4.7,0-9.5,0-14.2,0
		c-4.7,0-9.5,0-14.2,0s-9.5,0-14.2,0c-2.4,0-4.7,0-7.1,0c-1.2,0-2.4,0-3.6,0c-0.9,0-2.7-0.3-3.5,0c-0.7,0.3-0.5,0.3-0.5,1.2
		c0,0.6,0,1.2,0,1.8c0,1.2,0,2.4,0,3.5c0,2.4,0,4.7,0,7.1c0,2.1-0.6,4.6,0.9,6.2c1.2,1.4,3.2,1.2,4.2,2.9c0.5,0.8,0.6,1.6,1.2,2.3
		c0.6,0.8,1.3,1.2,1.3,2.3c-0.1,2.1-2.4,3-1,5.3c0.8,1.3,1.5,3.3,2.9,4.1c1.6,0.9,3.2,1.4,4.1,3.2c1,2,0.4,4.3,0.1,6.4
		c-0.4,2.3-0.4,3.7-1.6,5.7c-0.4,0.8-0.8,1.4-1.5,2C4.2,53.6,2.3,54.7,4,55c1.3-0.3,2.2,0.7,0.9,1.5C4,57,2.4,57.3,2,56.3
		c-0.5-1,0.1-2.6-1.9-2.2c-1.1,0.2-1.5,1.4-1.6,2.4C-1.8,58.6,0.2,61-0.7,63c-0.8,1.6-3.3,1.9-4.5,3c-1.6,1.5-0.2,4.4,0.1,6.3
		c0.3,1.4-0.4,1.7-0.7,2.8c-0.3,0.9-0.2,2.9,0,3.8c0.2,1,1.2,1.4,1.3,2.7c0.1,1.1-0.4,2.2-0.4,3.4c0,2.3,1.4,3.4,3.4,4.3
		c1.1,0.5,2.2-0.2,2.7,1.1c0.4,1,0,2.1,0.7,3.1c1.7,2.5,2.6,0.2,3.8-1.3c1.1-1.5,3.7-2,5.4-0.9c0.7,0.5,1.2,1.4,1.8,2.1
		c0.9,1.1,0.8,1.3,0.8,2.7c0,1.4,0.4,1.6,1.6,2.1c0.8,0.3,1.7,1,2.6,1.2c1.7,0.4,1.8-0.4,2.4,1.4c0.3,0.9-0.1,0.7,0.9,0.9
		c0.6,0.1,1.3,0,1.9,0c5.1,0,10.1,0,15.2,0s10.1,0,15.2,0c5.1,0,10.1,0,15.2,0C69.8,101.6,71.1,101.8,72.2,101.6z"/>
	<path id="elev--8000" d="M-2.7,70.6c1.2-0.6,2-3.7,0.6-4.4c-2-1.1-3.2,1.4-2.5,3C-4.3,69.9-3.7,70.8-2.7,70.6z
		 M-2.8,86c0.2-0.1,0.4-0.4,0.3-0.7C-2.3,83.1-4.5,85.8-2.8,86z M71,101.6c1.9-2.7,2.3-6,4.1-8.6c0.8-1.2,2-2.6,3.6-2.8
		c1.7-0.2,3,1.3,4.5,1.9c0.7,0.3,1.9,0.6,2.7,0.5c1-0.1,1.1-0.7,1.9-1.2c1.3-0.9,3.2-1.2,4.6-1.8c0.8-0.4,1.6-0.5,2.3-0.9
		c0.7-0.3,1.4-1,2.2-1c0.9,0,1.4,0.9,2,1.3c0.7,0.5,1.6,0.7,2.4,0.9c1.3,0.4,4.6,0.7,4.7,2.1c0,1-0.8,1.3-0.1,2.4
		c0.4,0.7,1.1,1,1.5,1.7c0.2,0.3,0.3,0.8,0.4,1.1c0.5-3.1,0-6.8,0-10c0-3.4,0-6.7,0-10.1c0-3.4,0-6.7,0-10.1c0-3.4,0-6.7,0-10.1
		c0-3.4,0-6.7,0-10.1c0-3.4,0-6.7,0-10.1c0-3.4,0-6.7,0-10.1s0-6.7,0-10.1s0-6.7,0-10.1c0-1.7,0-3.4,0-5.1c0-1,0.3-1.6-0.6-1.9
		c-0.6-0.2-1.9,0-2.6,0c-3.4,0-6.7,0-10.1,0s-6.7,0-10.1,0c-3.4,0-6.7,0-10.1,0c-3.4,0-6.7,0-10.1,0c-3.4,0-6.7,0-10.1,0
		c-3.4,0-6.7,0-10.1,0c-3.4,0-6.7,0-10.1,0c-3.4,0-6.7,0-10.1,0s-6.7,0-10.1,0s-6.7,0-10.1,0c-1.7,0-3.4,0-5.1,0c-0.8,0-1.7,0-2.5,0
		c-1.1,0-1.6-0.3-1.9,0.6c-0.4,1.2-0.2,3.8,0,5.1C-5.7,6.3-4.8,7.2-4,8.3c1.1,1.4,0.1,2.5,0.8,3.9c0.3,0.5,0.8,1,1.1,1.6
		c0.3,0.6,0.3,1.3,0.7,1.8c1,1.3,2.2,1,2.3,3C1,20.1,0.8,21.6,1.5,23c0.7,1.3,1.4,2,1.7,3.4c0.1,0.7,0.1,1.4,0.5,2
		C4,29,4.8,29.4,4.8,30C4.9,31.2,3,32.2,4,33.7c0.7,1,2.6,0.8,3.5,1.7c1.9,1.7,3.1,4.3,3.2,6.9c0.2,2.9-0.3,6.1-1.1,8.9
		c-0.2,0.6-0.6,1.2-0.7,1.9c-0.1,0.9,0.3,1.3,0.3,2.1c0.1,1.5-1.1,2.1-2.2,2.7c-1.2,0.6-2.1,1.2-3.2,2c-1.3,1-2.3,1.1-1.5,2.8
		C3.1,64.2,3.2,65,2,66.2c-1.5,1.5-0.8,1.8,0,3.5c0.6,1.4,0.4,2.5,1.5,3.7c0.9,0.9,1.5,1.8,2.2,2.9c1.4,2.1,3.7,3.4,3.9,6.2
		c0.2,1.9,0,2.5,1.9,3.2c1.9,0.6,1.8,1.6,1.6,3.4c-0.4,2.8,1.7,4.9,4.1,6.1c2.9,1.5,4.1,2.1,4.8,5.4c0.2,1.1,0.2,1.1,1.4,1.1
		c0.8,0,1.7,0,2.6,0c1.7,0,3.4,0,5.1,0c3.4,0,6.7,0,10.1,0c3.4,0,6.7,0,10.1,0c3.4,0,6.7,0,10.1,0C64.4,101.6,67.9,102,71,101.6z"/>
	<path id="elev--7000" d="M68.2,101.6c3-1.5,2.8-4.5,4-7.3c1.1-2.4,2.7-4.8,4.9-6.4c3.1-2.1,4.4,2,7.1,2.8
		c2.8,0.8,5.5-2,7.7-3.1c1.1-0.6,2.6-1.4,3.8-1.8c1.6-0.6,2.9,0,4.4-1.1c1.6-1.2,2.1-0.6,3.9,0c0.8,0.3,1.7,0.3,2.5,0.5
		c1.2,0.3,1.2,0.7,1.4-0.6c0.5-3.5,0-7.5,0-11c0-3.7,0-7.3,0-11c0-3.7,0-7.3,0-11s0-7.3,0-11c0-3.7,0-7.3,0-11s0-7.3,0-11
		c0-3.7,0-7.4,0-11c0-1.8,0-3.7,0-5.5c0-0.5,0.3-2.4,0-2.7c-0.3-0.3-2.3,0-2.7,0c-3.7,0-7.3,0-11,0s-7.3,0-11,0c-3.7,0-7.3,0-11,0
		c-3.7,0-7.4,0-11,0c-3.7,0-7.3,0-11,0c-3.7,0-7.3,0-11,0s-7.3,0-11,0s-7.3,0-11,0s-7.3,0-11,0c-1.8,0-3.7,0-5.5,0
		c-0.9,0-1.8,0-2.7,0c-1.5,0-1.1,0-1.6,1.2c-0.7,1.7-1.9,1.8-0.6,3.7c0.9,1.4,1.5,2,3.1,2.6c2.3,0.9,4.7,4,5,6.5
		C4.1,16.7,2.2,20,3.8,23c0.7,1.3,0.6,2.9,2,3.5c0.7,0.3,1.4,0.2,2,0.9c0.4,0.5,0.6,1.2,1,1.8c1.7,2.6,2.2,5.3,3.1,8.3
		c1,3.2,1.2,6.5,1,9.8c-0.2,2.5-0.1,7.4-1.7,9.4c-0.8,1-2.4,1.3-3.1,2.6c-0.4,0.8-0.1,1.2,0.1,2c0.3,0.9,0.2,1.7,0.2,2.6
		c0,1.8,0.2,3.5,0,5.3C8.3,71,8.4,72,9,73.7c0.5,1.5,0.3,2.9,1.1,4.4c0.7,1.3,0.8,2.8,1.5,4.1c1.7,3,5.9,0.9,5.1,5.8
		c-0.3,1.9-0.3,2.6,0.9,4.1c1.1,1.3,1.7,1.8,3.3,2.2c3.8,1,0.8,6.1,3.7,7.4c1.3,0.6,4.1,0,5.5,0c1.8,0,3.7,0,5.5,0c3.7,0,7.4,0,11,0
		c3.7,0,7.3,0,11,0C61.1,101.6,64.9,102.1,68.2,101.6z"/>
	<path id="elev--6000" d="M65.9,101.6c1-1.1,2.5-1.9,3.2-3.3c0.8-1.5,1.1-3.3,1.7-4.8c1.2-2.8,2.8-5.9,5.3-7.7
		c1.5-1.1,3.2-1.1,4.6,0.1c1.7,1.4,1.9,2.1,4.1,1c1.2-0.6,1.3,0.3,2.3,0.1c0.6-0.1,1.2-1.5,1.7-1.9c1.4-1.3,3.2-1.6,5-1.7
		c1-0.1,2,0,2.8-0.8c0.5-0.5,0.7-1.5,1.2-2.1c1.3-1.7,3.3-1.2,5.2-1.3c0.5,0,1-0.1,1.6,0c0.3,0,0.7,0.1,1,0.1
		c3.4,0.6,2.3-5.5,2.3-7.5c0-3.1,0-6.2,0-9.2c0-6.2,0-12.3,0-18.5c0-6.2,0-12.4,0-18.6c0-6.2,0-12.3,0-18.5c0-1.6,0-3.1,0-4.7
		c0-0.7,0.2-1.7,0-2.3c-0.3-1-0.5-0.7-1.6-0.7c-3.1,0-6.2,0-9.2,0c-6.2,0-12.3,0-18.5,0c-6.2,0-12.4,0-18.6,0c-6.2,0-12.3,0-18.5,0
		c-6.2,0-12.4,0-18.6,0c-6.2,0-12.3,0-18.5,0C3-0.7,1.4-0.8,0-0.6C1,1.6,2,3.7,2.9,6C3.3,7,3.7,8.2,4.3,9.2c0.6,0.9,1.5,1.7,1.9,2.7
		c0.9,2.5-1.3,5.2-0.5,8c0.2,0.6,0.6,1.1,0.7,1.7c0.1,0.7-0.1,1.4,0.2,2.1c0.5,1,1.7,1.3,2.4,2.2c0.7,0.9,0.9,2,1.6,2.8
		c0.8,0.9,1.2,1.7,1.8,2.7c0.6,1,1.8,1.4,2.4,2.4c0.7,1.2,0.1,2.8,0.1,4.1c-0.1,2.8,0.7,5.6,0.5,8.4c-0.1,2.5-0.7,5.2-1.5,7.7
		c-0.3,1-0.8,2.3-1.4,3.2c-0.6,0.9-1.9,1.2-2.4,2.2c-0.5,0.9,0.2,2.8,0.4,3.8c0.2,1.3,1,2.2,1.2,3.4c0.2,1.3-0.8,2.1-1,3.3
		c-0.2,1.3,0.6,2.4,1,3.5c0.8,2.3,0.6,5.2,1.7,7.5c1.1,2.2,4.1,1.6,5.3,3.9c0.9,1.8-0.6,6.1,1.7,7.1c1.2,0.5,2.4-0.6,3.6,0.2
		c1,0.7,1.3,2.2,1.5,3.2c0.4,2.4-0.5,6.2,2.9,6.2c1.5,0,3,0,4.5,0c0.8,0,1.4,0,2-0.3c0.7-0.3,0.4-0.7,1.4-0.5c0.5,0.1,1,0.6,1.6,0.7
		c0.7,0.2,1.5,0,2.2,0c1.5,0,3,0,4.5,0c0.7,0,1.6,0.1,2.3,0c0.2,0,0.2-0.5,0.7-0.5c0.3,0,0.5,0.3,0.8,0.4c1.4,0.3,3,0.1,4.4,0.1
		c3,0,6,0,9,0C63,101.6,64.6,101.8,65.9,101.6z"/>
	<path id="elev--5000" d="M63.9,101.6c1.3-1.4,3-2.6,4-4.2c1.1-1.8,1.5-4,2.3-5.9c1.3-3.2,3.7-8.9,8-8.4
		c2.4,0.3,4,1.5,6.5,0.1c1.8-1,2.7-2.9,4.4-4c0.9-0.6,1.9-0.6,2.7-1.3c0.7-0.7,1.1-1.9,1.4-2.9c0.6-2.3-0.1-4.9,1.5-6.9
		c0.9-1.2,1.8-0.4,3.1-0.8c1.1-0.4,2.5-0.8,3.6-1.3c1.8-0.8,3.4-4,5.7-1.8c0.4,0.3,0.6,0.8,0.8,1.3c0.4-2.6,0-5.7,0-8.3
		c0-2.8,0-5.6,0-8.3c0-5.6,0-11.2,0-16.8c0-5.6,0-11.1,0-16.7c0-2.8,0-5.6,0-8.4c0-1.4,0-2.8,0-4.2c0-0.7,0-1.4,0-2.1
		c-0.1-1.1,0.1-1-0.9-1.2c-2.6-0.4-5.7,0-8.3,0c-2.8,0-5.6,0-8.4,0c-5.6,0-11.2,0-16.7,0c-5.6,0-11.2,0-16.8,0c-5.6,0-11.1,0-16.7,0
		c-5.6,0-11.2,0-16.8,0c-5.6,0-11.2,0-16.7,0c-1.3,0-2.8-0.1-4.1,0c0.8,1.9,1.4,3.8,2.1,5.7c0.4,0.9,0.6,2,1.2,2.8
		C6.1,8.7,6.9,9.2,7.3,10C8.6,12.1,8,13.7,8,16c0,1.2,0.6,1.6,1.2,2.5c0.7,1,0.8,1.9,0.7,3.1c0,1.9,0.2,4.4,1.6,5.9
		c1.2,1.3,2.5,2.8,4,3.7c2.3,1.3,1.6,2.9,1.3,5.1c-0.3,2.3,0.7,4.5,0.5,6.9c-0.3,4.2-0.8,8.8-2.8,12.6c-0.9,1.8-1.9,3.6-2.2,5.5
		c-0.1,1.1-0.4,2.2,0.2,3.2c0.5,0.9,1.4,1.2,1.9,2c0.9,1.8-0.6,4.6-0.7,6.5c-0.2,1.8,0.7,4.5,1.2,6.3c0.6,2,2.9,2.2,4.2,3.6
		c1.7,1.9,0.9,3.7,1.4,5.9c0.5,2.3,3.6,1.1,4.8,2.9c1.2,1.7,1.2,4.1,1.5,6.1c0.4,2.1,2,3.6,4.1,3.6c1.6,0,2.2,0.2,2.3-1.6
		c0.1-1.1-0.5-2.8-0.2-3.8c0.5-1.6,1.1,0,1.9,0.4c0.9-0.3,0.9-1.7,1.8-2.1c0.9-0.5,2.5-0.3,3.5-0.1c1.8,0.4,3.3,1.8,4.9,2.6
		c1.9,0.9,2.6,2,3.8,3.7c0.5,0.7,0.2,0.7,0.9,0.9c0.5,0.2,1.4,0,1.9,0c1.2,0,2.5,0,3.7,0C58.3,101.6,61.4,102,63.9,101.6z"/>
	<path id="elev--4000" d="M31,99.7c1-0.9,0.5-3.6,0.4-4.8c-0.2-1.8-1-2.2-2-3.5c-0.5-0.6-0.7-1.6-1.6-1.6
		c-1.7,0.4-0.2,7.9,0.8,9C29.2,99.6,30.2,100,31,99.7z M62.2,101.6c1-1.5,2.7-2.7,3.8-4.2c1.3-1.7,2-3.3,2.6-5.3
		c1.1-3.4,3-8,6.1-9.9c1-0.6,2.2-0.9,3.3-1c1.5-0.2,2.6,0.5,4,0.5c2.9,0,3.3-3.6,5-5.2c0.9-0.8,1.9-1.2,3-1.8c1.5-0.9,1.1-2,1.3-3.6
		c0.2-1.3,1-2.4,1.3-3.6c0.3-1.4-0.5-2.8,0.7-3.9c0.9-0.8,2-1.3,2.9-2c0.9-0.7,2.1-1.3,3.1-1.6c1.8-0.5,2.5,0.5,4,0.9
		c1.6,0.5,2.9-0.4,4.2,1.1c0.4-2.7,0-5.7,0-8.4c0-2.8,0-5.6,0-8.3c0-5.6,0-11.2,0-16.8c0-5.6,0-11.2,0-16.7c0-2.8,0-5.6,0-8.4
		c0-0.8,0.4-3.6-0.2-4c-0.6-0.5-3.4,0-4.2,0c-5.6,0-11.2,0-16.8,0c-5.6,0-11.2,0-16.8,0c-5.6,0-11.1,0-16.7,0c-5.6,0-11.2,0-16.8,0
		s-11.2,0-16.8,0c-2.8,0-5.6,0-8.3,0c-1.4,0-2.8,0-4.2,0c-0.7,0-1.4,0-2.1,0C3.9-0.6,4-0.8,4,0.1c0.2,1.8,1.6,4.5,2.5,6
		c1.1,1.8,2,3.5,3,5.4c0.9,1.9,2.2,3.7,2.5,5.8c0.4,2.6,0.8,4.8,0.6,7.4c-0.1,1.6,2.3,3.8,3.6,4.8c2.1,1.4,2.9,2.8,3.2,5.4
		c0.1,1.4-0.3,2.6-0.4,3.9c-0.1,1.4,0,2.8-0.2,4.2c-0.3,2.5-0.6,5-1.1,7.5c-0.4,2.2-0.9,4.6-1.9,6.6c-1.1,2.1-1.5,4.7-0.7,7
		c0.3,1,1,1.9,1.3,2.9c0.3,1.2,0.2,2.4,0.6,3.6c0.4,1.5-0.1,2-0.3,3.4c-0.2,1.1,0.2,2.6,0.4,3.7c0.4,2.1,2.6,3.3,4.1,4.8
		c1,1,1.1,1.5,1,2.9c-0.1,1-0.7,2.7,0,3.6c0.6,0.8,2.5,0.8,3-0.1c0.5-0.8-0.7-3.4,1.3-2.1c0.8,0.6,1.2,1.8,2,2.4
		c0.7,0.6,2.2,1,3,1.4c1.2,0.6,2.4-0.1,3.6,0.3c1,0.3,1.9,0.9,3,1.2c2.2,0.5,4.2,1.1,6.1,2.3c1,0.6,2.1,0.7,3.1,1.2
		c1.2,0.6,1.3,1.5,1.7,2.7c0.2,0.6,0.6,2.9,0.9,3.2c0.6,0.5,3.4,0,4.2,0C56.8,101.6,59.7,102,62.2,101.6z"/>
	<path id="elev--3000" d="M30,97.7c0.7-0.6,0.5-3.4-0.7-3C28.3,95.1,28.8,97.7,30,97.7z M60.5,101.6
		c1-1.9,3.2-3.1,4.4-4.9c1.4-2,2.4-4.1,3.2-6.3c0.8-2.2,1.6-4.7,2.9-6.6c0.6-0.9,1.6-1.6,2.4-2.4c0.9-0.8,2-0.9,2.9-1.7
		c2.2-1.7,0.7-4.9,2.7-6.8c0.8-0.8,1.9-1.1,2.7-1.9c1.2-1.2,1.7-1.3,3.4-1c1.3,0.3,2.8,0.6,3.7-0.6c0.6-0.8,1.2-2.4,1.6-3.3
		c0.5-1.2,0.3-2.4,1.1-3.5c0.6-0.8,1.4-2,2.2-2.7c0.7-0.7,1.9-1.4,2.8-1.9c1.4-0.7,2.3-0.2,3.8,0c3.9,0.6,1.6-4.1,4.7-4.6
		c0.6-0.1,1.3,0.3,2,0.3c1.5,0.3,0.9-2,0.9-3c0-1.3,0-2.6,0-3.9c0-2.6,0-5.1,0-7.7c0-5.1,0-10.3,0-15.4s0-10.3,0-15.4
		c0-2.6,0.1-5.2,0-7.8c0-1,0.2-1-0.6-1.2c-0.5-0.2-1.4,0-2,0c-1.3,0-2.6,0-3.8,0c-5.1,0-10.3,0-15.4,0s-10.3,0-15.4,0
		c-5.1,0-10.3,0-15.4,0s-10.3,0-15.4,0s-10.3,0-15.4,0s-10.3,0-15.4,0c-1.2,0-2.5-0.1-3.7,0c1.6,3.7,2.7,7.9,5.1,11.2
		c1.2,1.6,3.2,2.2,4.3,3.9c1.2,1.9,1.3,4.6,1.5,6.7c0.2,2,1,4.6,1.8,6.4c0.4,0.9,1.2,1.6,1.7,2.5c0.5,0.9,0.8,2,1,3
		c1.1,4.5-0.7,9.7-1.1,14.3c-0.2,2.5-0.9,4.5-1.4,6.9c-0.2,1.1-0.3,2.1-0.8,3.1c-0.6,1-1.1,1.7-1.1,2.9c-0.2,2.6,0.8,4.5,1.3,7
		c0.4,2.1,1,4.3,1.7,6.4c0.3,0.9,0.6,2.1,1.1,2.9c0.5,0.9,1.5,1.3,2,2.3c1.2,2,2.6,2.5,4.4,3.8c1.7,1.2,3.9,1.6,5.8,2.3
		c1.3,0.5,1.3,0.9,2.3,1.8c0.8,0.8,1.9,0.7,2.9,1.2c1.7,1,3.1,2.4,5,3.2c1.9,0.8,3.6,1.4,5.4,2.6c2.2,1.5,2.4,3.3,2.5,5.8
		c0,0.3-0.1,1.7,0.1,1.9c0.3,0.2,1.6,0,2,0c1.3,0,2.7,0,4,0C57.9,101.6,59.2,101.8,60.5,101.6z"/>
	<path id="elev--2000" d="M58.9,101.6c1.9-2.3,4.4-4,5.9-6.6c0.7-1.3,1.4-2.7,2.1-4.1c0.7-1.5,0.9-3.2,1.5-4.8
		c1-2.5,3.1-5.4,5.3-7c1.5-1.1,1.9-1.9,2.4-3.7c0.4-1.5,0.5-3.5,1.4-4.9c0.6-1,2.7-2,3.9-2.4c1.7-0.6,4.1,0.3,5.5-0.4
		c1-0.5,2-2.8,2.4-3.8c0.5-1.6,1.2-2.6,2.2-3.9c0.9-1.3,2.2-1.8,3.5-2.6c1.9-1.1,2.9-0.9,5-0.9c1.5,0,2-2.1,2.8-3.3
		c1-1.3,1.7-2.2,3.2-2.9c1.2-0.5,1.5-0.3,1.7-1.6c0.1-1,0-2,0-3c0-2.1,0-4.1,0-6.2c0-4.1,0-8.2,0-12.3c0-4.1,0-8.2,0-12.3
		s0-8.2,0-12.3c0-0.6,0.3-2.7-0.1-3c-0.4-0.3-2.5,0-3.1,0c-2,0-4.1,0-6.1,0c-4.1,0-8.2,0-12.3,0c-4.1,0-8.2,0-12.3,0
		c-4.1,0-8.2,0-12.3,0s-8.2,0-12.3,0s-8.2,0-12.3,0s-8.2,0-12.3,0c-4.1,0-8.2,0-12.3,0c-1.9,0-4.1-0.2-6,0c1.3,3.7,2.3,8.2,5.2,11.1
		c1.3,1.4,3.4,2.1,4.3,3.8c0.9,1.6,1.8,4.1,2,6c0.3,2.3,0.3,4.5,1.5,6.6c1,1.7,2.3,3.4,2.7,5.4c0.5,2.2,0.1,5.6-0.2,7.8
		c-0.4,2.3-1,4.5-1.2,6.8c-0.2,2.6-0.2,4.7-1.2,7.1c-0.4,1.1-0.5,2.2-0.9,3.3c-0.3,0.9-1,1.7-1.2,2.7c-0.5,2.2,0.6,4.8,0.9,7
		c0.3,2,0.9,4.1,1.9,6c0.9,1.8,2.4,3.2,3.1,5.1c0.9,2.2,2.1,2.8,4.2,3.9c1.9,1,3.9,1.7,6,2c2.1,0.4,3.3,1.8,5,2.9
		c3.2,2.2,7.1,3.5,10.1,5.9c1.9,1.5,2.7,2.7,2.9,5.2c0,0.6-0.5,3.4-0.2,3.7c0.4,0.4,3.3,0,3.9,0C56.4,101.6,57.8,101.8,58.9,101.6z
		 M94.5,56.1C94.5,56,94.5,56,94.5,56.1L94.5,56.1z"/>
	<path id="elev--1000" d="M57.5,101.6c1.5-1.9,3.3-3.4,5-5.2c1-1.1,1.5-1.9,1.9-3.3c0.4-1.3,1.3-2.1,1.9-3.2
		c1.3-2.5,1-5.1,2.8-7.4c1.5-1.8,3.6-3.5,4.9-5.5c0.8-1.3,0.6-2.8,0.8-4.3c0.2-1.2,0.9-2.4,1.7-3.4c1.4-1.9,3.8-3.1,5.6-4.5
		c1.4-1.1,2.4-0.6,4.1-1c1.4-0.4,1.8-1.4,2.6-2.4c1.5-2,3.1-3.6,5.3-4.9c2.2-1.3,5-1.5,7-3.1c1-0.8,1.4-1.9,2.1-2.9
		c0.8-1.2,1.7-1.5,2.9-2.2c1.6-0.9,1.6-1.7,1.6-3.5c0-1.7,0-3.4,0-5.1c0-3.4,0-6.7,0-10.1s0-6.7,0-10.1s0-6.7,0-10.1
		c0-1.7,0-3.4,0-5.1c0-0.8,0.5-4.5,0-5c-0.5-0.5-4.2,0-5,0c-1.7,0-3.4,0-5.1,0c-3.4,0-6.7,0-10.1,0s-6.7,0-10.1,0
		c-3.4,0-6.8,0-10.2,0c-3.4,0-6.7,0-10.1,0c-3.4,0-6.7,0-10.1,0c-3.4,0-6.7,0-10.1,0c-3.4,0-6.7,0-10.1,0s-6.7,0-10.1,0
		c-1.7,0-3.4,0-5.1,0c-0.8,0-1.7,0-2.5,0C8-0.7,7.7-0.9,7.6,0C7.5,1.3,8.2,2.8,8.9,3.8c0.7,1.2,1,2.3,1.6,3.5c1,2.2,3.3,3.6,5.1,5
		c1.2,0.9,1.3,2,1.7,3.3c0.4,1.2,1.1,2.3,1.5,3.5c0.4,1.5,0.2,3,0.5,4.6c0.2,1.3,0.9,2.4,1.6,3.5c1.5,2.5,2.8,4.5,2.3,7.5
		c-0.3,1.6,0,3-0.1,4.6c0,1.4-0.6,2.9-0.9,4.3c-0.6,3,0,6.4-0.9,9.3c-0.7,2.5-2.4,4.8-2.9,7.5c-0.3,1.4,0,3.3,0.3,4.7
		c0.3,1.4,0.4,2.9,0.9,4.3c0.9,2.6,2.3,4.3,3.7,6.6c0.7,1.1,0.7,2.5,1.5,3.5c0.8,0.9,2.2,1.4,3.3,1.8c1.2,0.5,2.4,1.1,3.6,1.5
		c1.3,0.4,2.9,0.3,4.1,0.9c2.2,1,3.7,3.3,5.9,4.4c2.3,1.2,4.7,1.8,6.9,3.4c0.9,0.7,1.9,1.6,2.7,2.4c1,1.2,1,2.5,1.1,4
		c0.1,0.8,0.2,1.6,0.1,2.4c-0.1,0.9-0.5,1.2,0.3,1.6C53.7,102.1,56.4,101.8,57.5,101.6z M94.5,56.1C94.5,56,94.5,56,94.5,56.1
		L94.5,56.1z"/>
	<path id="elev-0" d="M89.2,60.1C89.2,60.1,89,60,89.2,60.1L89.2,60.1z M71.9,78.5C71.9,78.5,71.9,78.5,71.9,78.5
		L71.9,78.5z M71.2,79.7C71.2,79.7,71.1,79.7,71.2,79.7L71.2,79.7z M71.1,79.9C71.1,79.8,71.1,79.8,71.1,79.9L71.1,79.9z M69.3,81.1
		C69.3,81,69.3,81.1,69.3,81.1L69.3,81.1z M62.7,90.1C62.6,90.1,62.6,90,62.7,90.1L62.7,90.1z M54.6,98.9c0.5-0.4,1.1-1.2,1-1.7
		c0.1,0,0.3,0,0.4,0c-0.1,0.1-0.2,0.2-0.2,0.3c0.8,0.8,2,0.1,1.4-1c0.5,0,0.8-0.3,0.8-0.8c0.7,0,0.8-0.8,1.2-1.1
		c0.4-0.3,1.2-0.4,1.4-0.7c0.1,0,0.1-0.1,0.2-0.2c0-0.2,0-0.2,0.2-0.1c0.2-0.5,0.3-0.7,0.5-1.1c0-0.1-0.1-0.2,0.2-0.2
		c0,0-0.1,0-0.2,0.1c0.6-0.1,0.5-1.1,0.8-1.2c0.3-0.5,0.1-1.7,0.8-2c0.6-0.3,0.9,0.3,1.1,0.3c0.6,0,0.6-0.6,1.3-0.3
		c0.1-0.1,0.2-0.1,0.3,0c0-0.2,0.1-0.4,0.3-0.5c-0.3-0.2-0.3-0.5,0.1-0.6c0-0.2,0.1-0.2,0.2-0.1c0.1-0.1,0.2-0.2,0.3-0.2
		c-0.1-1.8,0-3.1,1.2-3.9c0.1-0.1,0.1-0.2,0.2-0.4c0.1-0.2,0.2-0.4,0.3-0.7c-0.1,0.1-0.1,0.3-0.1,0.1c0.1-0.3,0.3-0.7,0.4-0.8
		c0.2-1.2,1-1.5,2.1-1.9c0-0.1,0-0.1-0.1,0c0.6-0.7,0.9-1.3,1.5-2.2c0.5-1,0.8-2,0.7-3.3c-0.1-0.8-0.1-1.4,0-2.2
		c0.2-1,0.2-1.3,0.9-1.2c0.4,0.5,0.5-0.7,0.8-1.1c0.3,0,0.8-1.1,0.9-1.5c0.4-0.1,0.4-0.4,0.8-0.8c0.4-0.4,0.4-0.4,0.9-0.7
		c0.6-0.4,1-1.1,1.6-1.2c0.2-0.7,0-1,0.4-1.5c0.2-0.3,0.9-0.8,1.3-0.9c0.4,0.3,0.3-0.2,0.8-0.3c0.3-0.1,0.9,0.1,1.3,0
		c0.6-0.2,1.8-1.2,2.3-0.9c1-0.1,2.2-0.4,3-1.3c0.7-0.7,1.6-1.5,2.3-2.3c0.7-0.8,1.2-1.9,2.2-2.6c0.6-0.4,1.3-0.2,1.9-0.5
		c0.6-0.3,0.6-0.7,1-1.1c0.9-0.8,2.6-0.7,3.8-1.1c1-0.4,2.2-1.1,2.9-1.9c0.7-0.8,0.8-2.2,1.8-3c1-0.8,2.2-0.9,3.1-1.8
		c1.3-1.1,1-2.2,1-3.9c0-1.6,0-3.2,0-4.8c0-3.2,0-6.4,0-9.6c0-6.4,0-12.9,0-19.3c0-1.6,0-3.3,0-4.9c0-1.3,0.5-3.7,0-4.8
		c-0.3-0.8-0.8-0.5-1.8-0.5c-0.8,0-1.6,0-2.5,0c-1.6,0-3.2,0-4.8,0c-6.4,0-12.9,0-19.3,0s-12.9,0-19.3,0s-12.9,0-19.3,0
		s-12.9,0-19.3,0c-1.6,0-3.2,0-4.9,0c-0.8,0-1.7-0.1-2.4,0c-0.9,0.2-1,0.3-0.8,1.2c0.2,1.2,0.9,2.6,1.1,3.9c0.1,0.3,0.3,0.6,0.3,0.9
		c0,0.1-0.4,0.4-0.4,0.7c0.1,0.7,0.5,0.9,0.9,1.6c0.5,0.9,0.1,3,0.8,3.6c0.9-0.2,1.8,0.6,2.3,1.3c0.3,0.3,0.5,0.9,0.6,1.3
		c0.1,0.2,0.2,0.4,0.2,0.7c0.1,0.4-0.5,0.2-0.4,0.5c0.1,0.4,0.6,0.6,0.9,1.1c0.2,0.3,0.4,1.1,0.4,1.4c0,0.5-0.2,1-0.1,1.5
		c0.2,0.6,0.5,0.7,0.7,1.2c0.5,1,0.1,2.1,0.3,3.2c0.2,1.2,1,1.5,1.4,2.5c0.8,1.6,1.5,3.9,2,5.4c0.3,1,0.4,2,0.2,3.2
		c-0.1,0.5-0.4,0.9-0.4,1.4c0,0.4,0.2,0.9,0.3,1.5c0.1,2-0.3,3.8-0.9,5.8c-0.6,2.4-0.7,3.8-0.9,6.1c-0.1,1.1,0.2,2.3,0,3.4
		c-0.1,0.6-0.4,0.7-0.7,1.2c-0.1,0.1-0.1,0.8-0.1,1.1c-0.1,0.6-1,1.4-1.2,2.4c-0.2,0.9,0.1,2.3,0.1,3c0,0.3,0.1,1.2,0,1.4
		c-0.2,0.8-0.6,0.5-1,1.1c-0.9,1.2-0.1,1.6,0.3,2.7c0.2,0.5,0.1,1,0.1,1.6c1.1,1.5,0.8,4.7,2.1,5.8c0.4-0.2,2.5,2.9,2.8,3.6
		c0.4,0.8,0.1,2.2,0.7,2.8c0.4,0.5,1.9,0.8,2.4,1.2c0.8,0.5,1.6,1.4,2.7,1.2c0.1-0.2,0.4-0.1,0.7,0.1c0.3,0.1,0.4,0.2,0.7,0.1
		c0,0-0.2-0.1-0.2-0.1c0,0,0.3,0,0.3,0c0.6,0.1,1.4,0.7,2.1,0.9c0.7,0.2,1.3,0.3,1.9,0.4c0.6,0.1,1,0,1.3,0.3
		c0.2,0.2,0.3,0.7,0.6,0.9c0.6,0.6,1.2,0.9,1.8,1.4c1,0.8,2.6,2,3.5,2.6c1.3,0.8,2.9,0.8,4.2,1.6c0.7,0.4,1.6,0.7,2.2,1.3
		c0.5,0.4,1,1.8,1.5,1.6c0.4,0.2,0.6,0.4,0.9,0.5c0.1,0.7,1.1,1.5,1.2,2.7C53.7,96.5,53.5,98.8,54.6,98.9z M15.6,9.1
		C15.6,9.1,15.6,9.1,15.6,9.1L15.6,9.1z M18.1,11.6c0-0.1-0.2-0.3,0.2-0.2C18.2,11.5,18.1,11.5,18.1,11.6z M18.1,11.9
		C18.1,11.8,18,11.6,18.1,11.9L18.1,11.9z M21.1,20.5C21.2,20.4,21.1,20.5,21.1,20.5L21.1,20.5z M21.5,57.3
		C21.4,57.1,21.5,57.2,21.5,57.3L21.5,57.3z M20.9,61.6C21,61.5,21,61.4,20.9,61.6L20.9,61.6z M79.5,63.9
		C79.3,63.9,79.5,63.9,79.5,63.9L79.5,63.9z M75.5,68.6C75.6,68.5,75.6,68.4,75.5,68.6L75.5,68.6z M72.5,72.2
		C72.5,72.1,72.5,72.1,72.5,72.2L72.5,72.2z M72.1,72.6C72.1,72.5,72.1,72.5,72.1,72.6L72.1,72.6z M72.5,75.5
		C72.5,75.5,72.5,75.5,72.5,75.5L72.5,75.5z M70.3,80.6L70.3,80.6L70.3,80.6L70.3,80.6z M37.3,82.9C37.4,82.8,37.4,82.8,37.3,82.9
		L37.3,82.9z M40.7,86C40.6,85.9,40.7,86,40.7,86L40.7,86z M63.8,88.7C63.7,88.6,63.8,88.7,63.8,88.7L63.8,88.7z M62.9,89.2
		C62.9,89.2,63,89.1,62.9,89.2L62.9,89.2z M61,93.2C61,93.1,61,93.1,61,93.2L61,93.2z M60.8,93.5C60.8,93.4,60.9,93.4,60.8,93.5
		L60.8,93.5z M59.2,94.2C59,94,59.2,94.1,59.2,94.2L59.2,94.2z M60.1,94.2C59.9,94.1,60.1,94.2,60.1,94.2L60.1,94.2z M58.3,95.7
		C58.2,95.7,58.5,95.6,58.3,95.7L58.3,95.7z M56.6,96.7C56.6,96.5,56.6,96.5,56.6,96.7L56.6,96.7z M57.1,96.6c0-0.1-0.1-0.2,0.3-0.2
		C57.1,96.4,57.1,96.5,57.1,96.6z M55.4,97.5C55.5,97.3,55.6,97.3,55.4,97.5L55.4,97.5z M55.3,97.7C55.3,97.6,55.3,97.6,55.3,97.7
		L55.3,97.7z M54.2,98C54,97.9,54.3,98,54.2,98L54.2,98z"/>
</g>
<g class="land">
	<path id="elev-1000" d="M53.2,85.4C53.1,85,53.2,85.6,53.2,85.4L53.2,85.4z M54.3,85.4c0.2,0,0.3-0.1,0.5-0.1
		c1.8-0.1,2.1-1.2,2.9-2.7c0.2-0.2,0.5-0.3,0.8-0.3c1.1-0.8,1.5-1.9,2.6-2.7c0-0.8,0.7-1.1,1.1-1.7c0.5-0.6,0.5-1.4,0.9-2.1
		c0.3-0.4,1.1-1.2,1.7-1.3c0.6-0.1,0.9,0.3,1.7-0.1c-0.2,0.1,0-0.4,0.1-0.4c0.2-0.1,0.4,0,0.6-0.1c0.4-0.1,0.7,0,1.1-0.1
		c0.7-0.3,1.2-0.7,1.7-1.3c1.1-1.3,1.2-2.7,1.6-4.2c0.2-0.9,0.2-2,0.6-2.9c0.2-0.6,0.8-1.9,1.1-2.4c0.7-0.5,1.7-1.8,2.2-3.1
		c0.3-0.9,0.4-1.3,1.1-1.7c0.7-0.4,1.4-0.3,2-0.9c0.5-0.5,0.6-1.2,1-1.6c0.5-0.5,1.3-0.7,1.9-1.1c1.2-1,1.8-1.9,3.5-2.4
		c1.1-0.4,1.5-0.2,2.5,0.2c0.9,0.3,1.8,0.2,2.8,0.4c0.1-0.1,0.2-0.2,0.3-0.3c0.2,0.9,1.6-0.8,2.1-1.1c0.9-0.5,1.7-1.1,2.7-1.5
		c1.7-0.8,3.8-1.6,5.2-2.8c0.8-0.6,1-1.8,1.7-2.4c0.6-0.6,1.5-1.2,2.1-1.7c0.6-0.4,1.5-1.3,2.2-1.7c0.6-0.4,0.9-0.2,1.2-0.8
		c0.2-0.4,0-1.5,0-2c0-5.3,0-10.5,0-15.8s0-10.5,0-15.8c0-1.5,0.6-7-0.4-7.5c-0.8-0.4-3,0-3.9,0c-1.3,0-2.6,0-3.9,0
		c-5.3,0-10.5,0-15.8,0s-10.5,0-15.8,0s-10.5,0-15.8,0s-10.5,0-15.8,0s-10.5,0-15.8,0c-1.2,0-2.6-0.1-3.8,0c0.4,1,0.3,2.1,0.6,3.2
		c0.2,1.1,0.8,2.3,0.9,3.5c0.1,1.2,0.4,2.7,1,3.8c0.7,1.2,1.6,1.4,2.6,1.9c1.1,0.5,1.8,1.4,2.5,2.5c0.8,1.4,1,2.1,1,3.8
		c0.1,2.7,0.5,5.3,1.1,8c0.5,2.6-0.2,5.8,0.2,8.6c-0.1,0.8-0.1,1.7-0.3,2.5c-0.1,1.2,0,2.5-0.1,3.7c-0.1,1.2-0.6,2.4-0.8,3.5
		c-0.4,2.4-0.6,4.9-0.4,7.3c0.2,2.3,0.2,4.5,0.5,6.8c0.1,1.1,0.2,2,0.4,3c0.3,1.1,0.9,1.9,1.4,2.8c1,2.1,2,4.3,3.3,6.2
		c1.2,1.3,2.2,3,3.9,4.1c1.7,1.2,3.6,1.4,5.5,1.9c4.1,0.9,6.7,4.7,11.3,4.6c0.3,0,1.4-0.2,1.7-0.1c0.3,0.2,0.5,1.3,0.6,1.8
		C53.7,84.1,52.6,85.4,54.3,85.4z M42.4,87.1C42.3,87.1,42.3,87.1,42.4,87.1L42.4,87.1z"/>
	<path id="elev-2000" d="M69.9,61c0-0.2,0.1-0.4,0.1-0.6C69.7,60.6,69.7,60.8,69.9,61z M71.4,61.9
		c0.7-0.9-0.4-2.2-1.3-1.5C70.8,60.9,70.5,61.8,71.4,61.9z M52.9,76.1c0.6-0.3,1.2,0,1.8-0.2c0.5-0.2,0.8-0.7,1.3-0.9
		c0.4-0.2,1,0,1.4-0.2c0.4-0.2,0.7-0.6,1.1-0.8c0.7-0.4,2-0.3,2.9-0.7c0.4-0.2,0.7-0.6,1-0.7c0.8-0.4,0.4,0,1.2,0
		c0.2,0,1.5,0.2,1.2,0.2c0.1,0,0.5,0,1-0.4c0.7-0.6,1.2-1.6,1.6-2.4c0.3-0.6,0.3-1,0.5-1.6c0.1-0.3,0.3-0.9,0.4-1.2
		c0.3-1.2-0.3-1.8-0.4-2.9c0-1.4,0.8-1.5,0.1-2.9c-0.1-0.3-0.8-1.1-0.8-1.4c0.1-0.6,0.8-0.7,1.2-0.2c0.1-0.3,1.4-0.4,2-0.7
		c0.8-0.4,1.4-0.8,2.1-1.5c0.2-0.8,1.3-0.1,1.9,0.2c0.4,0.1,0.5,0.6,1,0.5c0.9-0.2-0.4-0.9-0.4-0.7c-0.3-1,0.2-1.4,0.5-2.1
		c0.3-0.9,0.3-1.3,0.1-2.1c1.7,0.4,2.1,0.9,3.5-0.6c0.9-0.9,1.9-1.9,2.4-3.1c0.3-0.7,0.4-1.1,0.7-1.8c0.2-0.5,0.3-1.7,0.5-2
		c0.2-0.3,1.3-0.8,1.6-1.1c0.6-0.4,1-1,1.6-1.3c1.4-0.8,3.1,0.9,4-1.2c-0.2,0.3,0,0.5,0,0.7c0.3,0.1,0.5,0.1,0.7,0.4
		c0.1-0.1,2.3-0.5,2.9-0.5c1.2,0,2.1,0.7,3.3,0.3c0.5-0.4,1.9-0.4,2.8-0.5c1.1-0.2,1.8-0.1,2.9-0.6c1-0.4,2.1-0.2,2.9-0.5
		c0.4-0.1,2.2-1.1,2.4-1.4c0.4-0.6,0-2.8,0-3.6c0-1.2,0-2.5,0-3.7c0-2.5,0-5,0-7.5c0-5,0-10,0-15c0-2.5,0-5,0-7.5c0-1,0.3-3-0.4-3.3
		c-0.8-0.4-2.8,0-3.7,0c-5,0-10,0-15,0s-10,0-15,0c-5,0-10,0-15,0c-5,0-10,0-15,0s-10,0-15,0c-2.5,0-5,0-7.5,0
		c-1.8,0-1.2,0.7-0.8,1.9c0.3,0.9,0.6,2.1,0.8,3c0.1,0.9,0.6,2,0.5,2.7c1.2,2.9,2.9,4.9,4.8,7.4c1.1,1.4,1,2.7,1.2,4.4
		c0.2,1.6,0.6,3.1,0.7,4.7c0.2,2,0.4,3.9,0.6,5.9c0,0.6-0.3,1-0.3,1.6c0,0.5,0.3,0.8,0.3,1.3c0,1-0.2,2.1-0.2,3.2
		c0.1,2.1-0.4,4-0.6,6c-0.2,1.8-0.5,3.7-0.7,5.5c-0.3,2,0.3,4,0.7,5.8c0.2,1,0.3,1.9,0.6,2.9c0.2,0.5,0.4,0.9,0.5,1.4
		c0.1,0.6-0.3,1,0,1.6c0.9,2.2,2.1,4.4,3.4,6.3c0.7,1.1,1,2.1,1.9,3c0.9,0.9,1.7,1.5,2.8,2c1.3,0.5,2.4,1.2,3.7,1.8
		c1.4,0.4,2.4,0.8,3.8,1.2c0.5,0.6,3.7,1,3.8,1.4l0,0c0.7,0.5,1.2,0.7,2,0.9C51.4,75.2,52.9,76.1,52.9,76.1z"/>
	<path id="elev-3000" d="M99.7,29.9C99.6,29.9,99.6,29.9,99.7,29.9L99.7,29.9z M101.1,32.2
		C102.6,30.8,98.9,32.1,101.1,32.2L101.1,32.2z M66.8,60.5c-0.1-0.2-0.2-0.4-0.3-0.6C66.3,60.3,66.5,60.3,66.8,60.5z M55,69.8
		c1.9-1.2,4.5-1.1,6.4-2.6c0.9-0.7,1.6-1.5,2.1-2.4c0.4-1,1-2.3,1.2-3.4c0.1-0.5,0.7-3.8,1.7-2.9c0.6-1.4,1.8-1.7,1.6,0.1
		c0.5-0.1,0.9,0.3,1.3,0.5c0-0.6-0.5-1-0.1-1.4c-0.8-0.3,0-1.4,0.3-2.1c0.6-1.3,0.6-1,1.6-0.6c-0.8-0.7,0.3-1.7,0.6-2
		c0.5-0.5,1.9-0.8,2.1-1.3c0.4,1.4,0.7,0.2,1.1-0.2c0.4-0.4,1.4-1.2,1.9-1.5c0.8-0.5,1.4-0.5,2-1.2c0.5-0.6,1-1.3,1.4-2.1
		c0.4-0.8,0.5-1.9,1.4-2.3c-0.5-0.7-0.9-2.1-0.2-2.8c0.7-0.7,0.4,0,1.2-0.1c0.3,0,0.9-0.4,1.3-0.6c0.8-0.2,1.3-1.3,1.8-1.8
		c0.3-0.3,0.6-0.4,0.8-0.9c0.2-0.4,0.1-0.9,0.3-1.3c0.2-0.5,1-1.4,1.5-1.8c0.6-0.5,1.5-0.3,2.3-0.7c0.9-0.4,1.1-1.6,1.9-2
		c1.3-0.5,2.1-0.4,3.2-1.6c0.8-0.9,1.4-2.1,2.4-2.6c0,0.1-0.2,0.2-0.2,0.3c0.1,0.1,0.2,0.2,0.1,0.4c0.3,0.1,0.4,0.3,0.7,0.1
		c0.2,0.3,0.2,0.2,0.6,0.3c0.5-0.2,0.7,0,0.5,0.4c1.6-0.5,1.8,1.5,3.7,1.5c-0.6,0.8,3,0.5,3.5,1c-0.2,0.2-0.3,0.4-0.4,0.6
		c0.7,0.3,0.9,0.8,1.3,0.1c0.2-0.4,0-1.5,0-2c0-1.3,0-2.7,0-4c0-2.7,0-5.3,0-8c0-5.3,0-10.7,0-16c0-0.8,0.4-3.5-0.1-3.9
		c-0.5-0.4-3.2,0-3.9,0c-2.7,0-5.4,0-8,0c-5.3,0-10.6,0-16,0c-5.3,0-10.6,0-16,0c-5.3,0-10.7,0-16,0s-10.7,0-16,0c-1.3,0-2.7,0-4,0
		c-0.5,0-3.6-0.3-3.9,0c0,0,0.8,2.8,0.9,3.1c0.2,0.9,0.7,1.9,0.9,2.7c0.5,2,0.7,4.2,1.2,6.2c0.6,2.1,2,3.6,2.6,5.7
		c0.3,1.1,0.8,1.7,1,2.8c0.2,1.1,0.3,2.2,0.2,3.3c0,1.1,0.4,2.1,0.5,3.1c0.1,1,0,2.1,0.1,3.2c0.2,1.1-0.3,1.9-0.2,3
		c0.2,0.4,0.2,0.9,0.1,1.4c-0.1,0.4-0.1,0.8-0.2,1.2c0.3,1.5,0,3.1-0.4,4.4c-0.4,1.4-0.2,2.9-0.1,4.2c0.1,2.8-0.5,5.2,0.6,8
		c0.6,1.4,1,2.8,1.5,4.2c0.8,1.5,1.2,3.5,1.9,5c0.8,1.6,2.1,2.3,3.3,3.6c0.6,0.6,1.1,1.3,1.8,1.6c0.8,0.4,1.5,0.7,2.3,1.1
		c0.7,0.4,1.5,0.9,2.2,1.2c0.9,0.4,1.8,0.3,2.6,0.5c1.3,0.3,1.4,0.2,2.7-0.2c0.9-0.3,2.3,0.2,3.1-0.2C53.3,68.9,53.8,69.8,55,69.8z
		 M106.5,32.6L106.5,32.6L106.5,32.6L106.5,32.6z"/>
	<path id="elev-4000" d="M49.7,65.1c0.3-0.1,0.6-0.1,0.9-0.1c1.5-0.2,3-0.1,4.4-0.3c0.8-0.1,1.2-0.5,2-0.6
		c0.3-0.1,0.8-0.1,1.1-0.3c0.4-0.2,0.4-0.5,0.7-0.8c0.5-0.4,1.4-1.1,2-1.3c1.4-0.4,2-2.2,2.7-3.3c0.3-0.6,0.6-1.5,1.3-1.8
		c0.5-0.2,1.6,0.7,1.6,0.7c0.8-0.4-0.7-1.4-0.8-1.7c-0.1-0.4,0.6-1.3,0.9-1.7c0.8-1.1,1.9-2.2,2.8-3c0.5-0.4,1.2-1,1.8-1.3
		c0.1,0,0.4,0.2,0.4,0.2c-0.1,0,0.5-0.2,0.4-0.2c-0.2,0.1,0.8-0.6,0.7-0.5c1.1-0.9,2.5-1.3,3.6-2.5c0.5-0.6,0.7-1.2,1.3-1.7
		c0.6-0.5,1.3-0.7,1.8-1.3c0.7-0.8,1.6-2.8,1.9-3.9c0.9-2.9,2.1-4.8,4.4-7c0.3-0.2,0.6-0.4,0.8-0.6c1.3-1.3,3-1.6,4.4-2.5
		c1.5-0.9,2.4-1.6,3.7-2.4c0.7-0.5,1.2-1.5,2-1.9c0.5-0.4,1.9-1.2,1.7-1.9c2.1-1.1,4.4-2.6,6.6-4.1c0.5-0.4,1-0.8,1.6-1.1
		c0.9-0.4,1.2,0.1,1.4-1.2c0.3-1.7,0-3.8,0-5.5c0-3.6,0.3-7.4,0-11c-0.1-1.3-0.4-1.1-1.7-1.1c-0.9,0-1.8,0-2.7,0c-1.8,0-3.7,0-5.5,0
		c-3.7,0-7.4,0-11,0c-3.7,0-7.4,0-11.1,0c-3.7,0-7.4,0-11.1,0c-3.7,0-7.4,0-11.1,0c-3.7,0-7.4,0-11,0c-3.7,0-7.4,0-11.1,0
		c-0.9,0-1.8-0.1-2.6,0c0.8,0.4,1.1,0.9,1.2,1.8c0.6,0.5,0.5,2.4,0.7,3.2c0.2,1,0.3,2,0.7,3c0.3,1.1,0.4,1.8,0.5,3
		c0.1,1.1,0.7,2,0.8,3.1c0,0.7-0.2,1.3-0.1,2c0.1,0.6,0.3,1.3,0.3,2c0.1,0.8,0.6,1.3,0.7,2.1c0.1,0.7,0.1,1.4,0,2.1
		c-0.1,1.5,0,2.8-0.1,4.4c0,1.4-0.1,2.9-0.2,4.3c-0.1,1.5-0.4,2.8-0.4,4.3c0,1.5,0.2,3.1,0,4.7c0.2,0.7-0.4,1.5-0.5,2.3
		c-0.1,0.9,0.1,1.8,0.3,2.6c0.3,3.9,1.7,7.8,3.1,11.7c1.5,4,3.8,6,7.5,7.9c1,0.5,1.8,1.1,3,1.1C47.2,65,48.9,64.6,49.7,65.1z
		 M53.4,64.4C53.4,64.4,53.4,64.4,53.4,64.4L53.4,64.4z"/>
	<path id="elev-5000" d="M37.6,1.8C37.5,1.7,37.5,1.7,37.6,1.8L37.6,1.8z M47.6,60.8c1-0.6,2.8-0.2,3.5-0.9
		c0.7,0.4,2.2-0.7,2.9-1c1-0.4,1.9-0.5,2.7-1c1.6-1,3.4-1.7,5-2.6c1.4-0.8,3.1-2.3,4.3-3.6c1.3-1.3,2.6-2.8,3.7-4.3
		c0.5-0.8,1.1-1.5,1.7-2.4c0.8-1.2,1.2-1.1,2.5-1.6c1.6-0.6,3.3-2.6,4.1-4c0.5-0.9,0.6-2.2,0.9-3.2c0.4-1.3,0.8-1.4,1.8-2.3
		c1.4-1.2,2.7-3.1,3.7-4.4c1.1-1.6,2.9-2.4,4.3-3.6c1.4-1.3,2.6-2.9,3.8-4.3c0.3-0.4,0.5-0.7,1-0.9c0.5,0.3,2.1-1.7,2.8-2.2
		c1.1-0.8,2.1-1.7,3-2.2c0.6-0.3,1.3-0.5,1.9-0.9c0.4-0.3,0.9-1,1.4-1.4c0.5-0.4,0.9-0.4,1.4-0.9c0.4-0.4,0.8-0.9,1.3-1.4
		c2.2-1.8,2.6-4.5,2.6-7.5c0-1.1,0.4-4.5-0.3-4.9c-0.9-0.6-4.1,0-5.3,0c-3.5,0-6.9,0-10.4,0c-3.5,0-6.9,0-10.4,0c-3.5,0-7,0-10.5,0
		c-3.5,0-6.9,0-10.4,0c-3.5,0-7,0-10.5,0c-3.5,0-6.9,0-10.4,0c-0.8,0-1.7-0.1-2.5,0c0.5,0.6-0.1,2.2,0.8,2c-0.1,0.2-0.2,0.6-0.3,0.8
		c-0.1,0.6-0.7,1-1.1,1.4c1,0.2,0.5,1,0.4,1.5c-0.1,0.6,0.2,1.2,0.3,1.9c0,0.7-0.3,1.4-0.2,2.2c0.1,0.6,0.2,1,0.1,1.7
		c-0.3,2.4-0.8,4.9-0.3,7.3c0.2,1.2,0.5,3.4-0.1,4.7c0,0.2,0,0.4-0.1,0.6c-0.2,3.2-0.8,6.3-1,9.5c-0.2,3-0.4,5.7-0.4,8.7
		c0,1.4,0.1,2.9,0.3,4.2c0.2,1.4,1,2.3,1.5,3.4c0.6,1.2,1,2.5,1.5,3.6c0.5,1.1,1.2,2.3,1.7,3.4c0.6,1.2,0.9,2.3,2.3,3.1
		c1.3,0.7,2.3,1.2,3.8,1.4C46.8,60.8,47.2,60.9,47.6,60.8z"/>
	<path id="elev-6000" d="M46.1,56.2c0.9-0.4,1.7-0.6,2.7-0.9c1.1-0.4,1.6-1.6,2.7-1.4c1-0.3,1.9-0.6,2.9-0.4
		c1-0.2,1.5-0.6,2.3-1c0.7-0.4,1.3-0.3,2.2-0.6c1-0.3,2.6-1.3,3.7-2.1c1.9-1.4,4.3-3.4,6.2-5.1c2-1.8,4.1-3.4,5.8-5.6
		c0.9-1.1,1.7-2.2,2.6-3.2c1.2-1.3,1.4-2,1.9-3.7c0.4-1.4,1.3-2.4,2.2-3.4c0.9-1,1.8-1.9,2.8-3c0.3-0.3,0.5-0.6,0.7-0.8
		c0.9-2,3.6-3.8,5.1-5.4c0.8-0.9,1.6-1.7,2.5-2.6c0.5-0.4,1.1-0.7,1.5-1.1c0.5-0.5,0.6-1.2,1-1.7c0.4-0.4,1.1-0.8,1.5-1.2
		c0.5-0.4,0.8-1.1,1.3-1.4c0.3-0.2,0.8-0.2,1-0.4c0.2-0.2,0.1-0.3,0.3-0.5c0.5-0.4,0.8-0.9,1.1-1.2c0.8-0.8,2.2-1.6,2.7-2.6
		c0.6-1.1,0.7-2.8,1-4c0.2-1,0.1-1.3-0.1-2.2c-0.2-1.2,0.1-1.2-1.2-1.4c-1.6-0.2-3.4,0-5.1,0c-3.4,0-6.8,0-10.3,0
		c-3.4,0-6.9,0-10.3,0c-3.4,0-6.8,0-10.3,0c-3.4,0-6.8,0-10.3,0c-3.3,0-7-0.4-10.3,0c-1.2,0.1-0.8,0.6-1.6,0.9
		c-0.1,0.5-0.6,0.6-0.7,0.9c-0.1,0.2,0,0.7-0.1,0.9c-0.2,0.7-0.4,1.6-0.5,2.5c-0.2,1.5-1,2.8-1.3,4.5c-0.1,0.8,0,2.1-0.3,3.1
		c0.2,0.7-0.5,1.6-0.6,2.3c-0.1,0.8,0,1.7,0,2.6c0,0.8-0.1,1.4-0.2,2.1c-0.1,0.8,0.1,1.6,0,2.3c0,0.7-0.2,1.6-0.3,2.2
		c-0.1,0.7-0.7,1.1-1,1.9c-0.6,1.4-0.4,3.3-0.6,4.8c-0.4,3.3-0.4,6.5-0.4,9.9c0,1.4,0.2,2.8,0.3,4.3c0.1,0.8-0.1,1.5,0.2,2.3
		c0.3,0.7,0.8,1.2,1.2,1.8c0.8,1.3,1.7,2.4,2.3,3.8c0.6,1.3,1.3,2.6,2.5,3.4C45.5,56.1,45.5,56.3,46.1,56.2z"/>
	<path id="elev-7000" d="M47.9,49.2C47.8,49.2,47.8,49.2,47.9,49.2L47.9,49.2z M46.6,50c0-0.7,1.4-0.8,1.7-1.3
		c0.1,0,0.1,0.1,0.2,0.2c0.3-0.2,0.5-0.3,0.8-0.5c0.9,0.3,2.4-0.5,3.2-0.8c1-0.4,2.4-0.6,3.6-1c1.1-0.3,2-1.1,3.1-1.4
		c1.3-0.4,2-1.1,3.2-1.8c1-0.6,2.2-1,3.2-1.5c0.8-0.4,1.9-1,2.7-1.5c1.2-0.7,1.6-1,2.6-2.1c0.7-0.9,1.6-1.7,2.5-2.4
		c1.5-1.4,3.4-3.3,4.3-5.3c1-2.2,2.2-4,3.8-5.8c3-3.4,6.3-6.7,9.4-10.3c1.5-1.8,3.6-2.9,4.8-4.9c0.7-1.2,1.3-2.1,2-3
		c0.7-0.9,1.1-2.3,1.2-3.3c0.1-0.6,0.1-1.1,0.3-1.8c-0.4-0.5-0.7-1.9-1.3-2.2c-0.6-0.4-2.5,0-3.3,0c-2.2,0-4.5,0-6.7,0
		c-4.5,0-9,0-13.4,0c-4.5,0-8.9,0-13.4,0c-2.2,0-4.5,0-6.7,0c-1.1,0-2.2,0-3.3,0c-1.3,0.1-1.2,0.4-1.9,1.5C48,2.4,48,4.2,47.2,6
		c-0.7,1.7-1.1,3-1,4.7c0,0.5,0.2,1,0.1,1.5c-0.3,1.8-0.2,4.6-1.2,6c-0.1,0.1,0.1,0.2-0.2,0.3c0.5,0.6,0.1,1.8-0.1,2.6
		c0,0.1-0.4,0.2-0.4,0.3c-0.1,0.3,0.1,0.6,0.1,0.7c-0.1,0.4,0,0.9-0.1,1.3c-0.2,0.9-0.4,1.6-0.5,2.5c-0.1,0.9-0.6,1.2-1,1.9
		c-0.4,0.7-0.6,1.8-0.7,2.6c0.4,1.6-0.4,3.6-0.3,5.4c0,1.7,0,3.2,0.1,5c0.1,1,0.4,2.1,0.3,3.1c0.6,1.3,1,2.5,1.5,3.6
		c0.3,0.7,1.4,3.4,2.2,2.2C46.3,49.8,46.5,49.9,46.6,50z"/>
	<path id="elev-8000" d="M48.8,42.1c1.3-1.1,4.1-0.7,5.8-1.1c1.9-0.5,3.7-1.2,5.6-1.7c1.9-0.5,3.4-1.8,5.3-2.5
		c1.9-0.6,3.2-2,4.8-3.4c1.4-1.2,3-2.3,4.4-3.7c1.4-1.4,2.3-2.9,3.4-4.5c1-1.5,2.6-2.7,3.8-4.1c1.2-1.5,2.1-2.9,3.1-4.5
		c1-1.7,2.6-2.9,3.6-4.5c1.1-1.6,2.6-2.6,3.7-4.1c1.1-1.4,2-3.7,2.1-5.4c0.1-1-0.3-1.6-1.1-2.4c-0.9-0.8-1.3-0.9-2.8-0.9
		c-5.2,0-10.3,0-15.5,0c-5.2,0-10.3,0-15.5,0c-1,0-3-0.4-3.9,0c-0.6,0.2-1.4,1.5-1.9,1.9c-1.6,1.5-2.2,3.3-3,5.2
		c-1.6,3.7-0.9,8.1-1.8,11.9c-0.3,1.1-0.4,1.9-0.7,2.9c-0.3,1.4-0.8,3.1-0.8,4.4c0,0.8,0.1,1.4,0.1,2c-0.1,0.7-0.5,1.3-0.7,2.1
		c-0.4,1.5-0.2,2.9-0.3,4.5c-0.2,1.3-0.3,2.8,0.1,4C46.7,39,48.1,42.2,48.8,42.1z"/>
	<path id="elev-9000" d="M55,35.7c0.8-0.3,1.7-0.7,2.7-0.9c1-0.2,2.1-0.1,3.1-0.5c1.7-0.6,3.8-1.4,5.4-2.2
		c1.6-0.9,2.8-2.2,4.4-3c1.7-0.8,3-1.9,4.2-3.3c2.4-2.7,4.7-5.2,6.5-8.3c1.8-3.1,3-7.2,5.4-9.5c1.3-1.2,2.9-2.6,2.9-4.6
		c0-1.7-2-3.9-3.7-4.1c-4.8-0.6-10.1,0-15,0c-2.5,0-5,0-7.5,0c-1.2,0-2.4-0.2-3.3,0.4c-0.6,0.5-1.2,1.4-1.8,2
		c-3.1,2.7-4.8,5.7-5.7,9.7c-0.4,1.9-1,3.4-0.8,5.4c0.2,2.2,0,4.1-0.7,6.1c-0.7,2,0.1,4,0.5,6c0.2,1.2,0.3,2.3,0.6,3.4
		c0.1,0.5,0.3,0.7,0.4,1.2c0.1,0.4-0.2,1.1-0.1,1.3C53,36,54.2,35.4,55,35.7z"/>
	<path id="elev-10000" d="M61.6,30.4c1.7-0.6,3.2-1.6,4.8-2.4c1.6-0.7,3.1-1.3,4.6-2.3c2.8-1.8,5.1-4.3,6.9-7.1
		c1.1-1.8,1.4-3.8,2.3-5.6c-0.1-1.2,1.4-3.3,1.8-4.3c0.5-1.3,1.8-2.8,2.8-3.7c0.4-1.1,0.8-0.8-0.3-1.8c-0.5-0.5-1-1.1-1.8-1.4
		c-0.6-0.2-1.5-0.4-2.1-0.6c-0.7-0.2-1.6-0.6-2.3-0.7c-0.8-0.2-1.5,0-2.3-0.2C75,0.2,74.3,0,73.5,0c-1.6,0-3-0.1-4.7,0
		c-3.4,0.3-6.1,1.5-8.7,3.7c-2.3,2-3.9,5-4.6,7.7c-0.4,1.7-0.8,3.3-0.8,5.1c0,1.6,0.6,3.3,0.4,5c0,0.4-0.1,0.8-0.2,1.3
		c0.3,0.8-0.3,1.8-0.2,2.6c0.1,0.8,0.2,1.7,0.6,2.4c0.2,0.3,1,1.7,1.2,2c0.6,0.6,1.5,0.2,2.3,0.4C59.7,30.2,60.5,30.4,61.6,30.4z"/>
	<path id="elev-11000" d="M60.5,26.9c0.3-0.2,0.6-0.2,0.9-0.1c1.9,0,4.3-1.1,6-1.8c1.7-0.6,3.3-1.8,4.6-3
		c1.4-1.3,2.6-2.6,3.5-4.2c1-1.8,1.2-3.4,1.7-5.4c0.5-2.1,1.3-4.5,2.5-6.4c0.1-0.4,0.1-0.6,0.2-1.1c-1.7-0.3-3.6-1.3-5.4-1.7
		C72.6,2.8,70.6,3,68.8,3c-4.1-0.1-7.1,1.8-9.3,5.1c-1.2,1.8-1.7,3.8-1.9,5.9c0.1,0.5-0.1,1-0.3,1.5c0.5,1.5,0.2,3.3,0.6,4.9
		c0.3,1.6,0.6,3.1,1,4.6C59.1,25.9,59.3,26.9,60.5,26.9z"/>
	<path id="elev-12000" d="M62.7,23.7c1.6-0.6,3.4-0.6,5-1.4c1.4-0.7,2.6-1.8,3.7-2.8c2.9-2.7,2.6-6.2,2.7-9.8
		c0-2.1-0.7-3.2-2.8-3.6c-1.9-0.4-3.6-0.5-5.5,0c-3.2,0.9-5.2,4.1-5.5,7.3c-0.2,1.7-0.2,3.5,0.1,5.2c0.2,1.1,0.4,4.1,1.2,4.9
		C61.7,23.6,62.4,23.7,62.7,23.7z"/>
	<path id="elev-14000" d="M64.4,18c0.3-0.2,0.6-0.3,0.9-0.5c0.6,0,1.6,0.2,2.6,0c1.3-0.3,1.4-0.7,1.7-1.8
		c0.5-1.7,1.5-3.8,0.1-5.6c-0.9-1.1-2-0.8-3.2-1.1c-3.4,0.3-4.2,4.5-3.2,7.1C63.5,16.7,63.7,18.1,64.4,18z M69.1,11.1
		C68.7,10.5,69.5,10.4,69.1,11.1L69.1,11.1z M-5.9-0.7"/>
</g>
</svg>
